<svg width="37" height="55" viewBox="0 0 37 55" fill="none" xmlns="http://www.w3.org/2000/svg">
<mask id="path-1-outside-1_187_648" maskUnits="userSpaceOnUse" x="-0.672363" y="0.16748" width="38" height="54" fill="black">
<rect fill="white" x="-0.672363" y="0.16748" width="38" height="54"/>
<path d="M16.2376 2.46748H34.6976V52.1675H16.2376V20.2175L2.03764 28.7375V10.9875L16.2376 2.46748Z"/>
</mask>
<path d="M16.2376 2.46748V0.467478H15.6837L15.2086 0.752491L16.2376 2.46748ZM34.6976 2.46748H36.6976V0.467478H34.6976V2.46748ZM34.6976 52.1675V54.1675H36.6976V52.1675H34.6976ZM16.2376 52.1675H14.2376V54.1675H16.2376V52.1675ZM16.2376 20.2175H18.2376V16.6851L15.2086 18.5025L16.2376 20.2175ZM2.03764 28.7375H0.0376368V32.2699L3.06663 30.4525L2.03764 28.7375ZM2.03764 10.9875L1.00865 9.27249L0.0376368 9.8551V10.9875H2.03764ZM16.2376 4.46748H34.6976V0.467478H16.2376V4.46748ZM32.6976 2.46748V52.1675H36.6976V2.46748H32.6976ZM34.6976 50.1675H16.2376V54.1675H34.6976V50.1675ZM18.2376 52.1675V20.2175H14.2376V52.1675H18.2376ZM15.2086 18.5025L1.00865 27.0225L3.06663 30.4525L17.2666 21.9325L15.2086 18.5025ZM4.03764 28.7375V10.9875H0.0376368V28.7375H4.03764ZM3.06663 12.7025L17.2666 4.18246L15.2086 0.752491L1.00865 9.27249L3.06663 12.7025Z" fill="white" mask="url(#path-1-outside-1_187_648)"/>
</svg>
