<svg width="61" height="56" viewBox="0 0 61 56" fill="none" xmlns="http://www.w3.org/2000/svg">
<mask id="path-1-outside-1_187_660" maskUnits="userSpaceOnUse" x="-0.692139" y="0.16748" width="62" height="55" fill="black">
<rect fill="white" x="-0.692139" y="0.16748" width="62" height="55"/>
<path d="M53.0549 6.80448C56.9835 9.21848 58.9479 13.0998 58.9479 18.4485C58.9479 23.4658 57.1965 27.1815 53.6939 29.5955C50.4279 31.8675 43.2805 34.5181 32.2519 37.5475H57.5279V53.1675H2.14786V37.5475C13.1765 33.0981 22.5012 29.4298 30.1219 26.5425C34.6659 24.8385 37.5532 23.6078 38.7839 22.8505C39.7779 22.2351 40.2749 21.5015 40.2749 20.6495V19.9395L40.1329 19.3005C39.9909 18.8271 39.6359 18.4248 39.0679 18.0935C37.6952 17.3361 34.7132 16.9575 30.1219 16.9575C26.8085 16.9575 24.4182 17.4071 22.9509 18.3065C21.3889 19.2531 20.6079 20.8151 20.6079 22.9925H2.14786C2.14786 15.7031 3.97019 10.5911 7.61486 7.65648C11.7329 4.39048 19.2352 2.75748 30.1219 2.75748C40.9612 2.75748 48.6055 4.10648 53.0549 6.80448Z"/>
</mask>
<path d="M53.0549 6.80448L54.1019 5.10043L54.0919 5.09433L53.0549 6.80448ZM53.6939 29.5955L52.5589 27.9487L52.5517 27.9537L53.6939 29.5955ZM32.2519 37.5475L31.7221 35.6189L32.2519 39.5475V37.5475ZM57.5279 37.5475H59.5279V35.5475H57.5279V37.5475ZM57.5279 53.1675V55.1675H59.5279V53.1675H57.5279ZM2.14786 53.1675H0.147862V55.1675H2.14786V53.1675ZM2.14786 37.5475L1.39959 35.6927L0.147862 36.1977V37.5475H2.14786ZM30.1219 26.5425L29.4196 24.6698L29.4133 24.6722L30.1219 26.5425ZM38.7839 22.8505L39.8321 24.5538L39.8366 24.551L38.7839 22.8505ZM40.2749 19.9395H42.2749V19.7199L42.2272 19.5056L40.2749 19.9395ZM40.1329 19.3005L42.0852 18.8666L42.0694 18.7955L42.0485 18.7258L40.1329 19.3005ZM39.0679 18.0935L40.0756 16.3659L40.055 16.3539L40.034 16.3423L39.0679 18.0935ZM22.9509 18.3065L23.9875 20.0169L23.996 20.0117L22.9509 18.3065ZM20.6079 22.9925V24.9925H22.6079V22.9925H20.6079ZM2.14786 22.9925H0.147862V24.9925H2.14786V22.9925ZM7.61486 7.65648L6.37207 6.08948L6.36629 6.09407L6.36054 6.0987L7.61486 7.65648ZM52.0078 8.5085C55.2406 10.4949 56.9479 13.6637 56.9479 18.4485H60.9479C60.9479 12.5359 58.7265 7.94205 54.1019 5.10045L52.0078 8.5085ZM56.9479 18.4485C56.9479 22.9436 55.4172 25.9788 52.5589 27.9487L54.8288 31.2423C58.9759 28.3842 60.9479 23.9881 60.9479 18.4485H56.9479ZM52.5517 27.9537C51.1314 28.9418 48.7202 30.1025 45.1884 31.4123C41.6888 32.7101 37.2052 34.1128 31.7221 35.6189L32.7816 39.476C38.3272 37.9528 42.9316 36.5155 46.5793 35.1627C50.1949 33.8218 52.9904 32.5212 54.836 31.2373L52.5517 27.9537ZM32.2519 39.5475H57.5279V35.5475H32.2519V39.5475ZM55.5279 37.5475V53.1675H59.5279V37.5475H55.5279ZM57.5279 51.1675H2.14786V55.1675H57.5279V51.1675ZM4.14786 53.1675V37.5475H0.147862V53.1675H4.14786ZM2.89613 39.4022C13.917 34.956 23.2276 31.2933 30.8305 28.4127L29.4133 24.6722C21.7748 27.5663 12.436 31.2403 1.39959 35.6927L2.89613 39.4022ZM30.8241 28.4151C35.322 26.7284 38.4048 25.4321 39.8321 24.5538L37.7357 21.1472C36.7016 21.7835 34.0097 22.9485 29.4196 24.6698L30.8241 28.4151ZM39.8366 24.551C41.1759 23.7219 42.2749 22.439 42.2749 20.6495H38.2749C38.2749 20.6589 38.28 20.6672 38.2463 20.717C38.1977 20.7888 38.0614 20.9455 37.7312 21.15L39.8366 24.551ZM42.2749 20.6495V19.9395H38.2749V20.6495H42.2749ZM42.2272 19.5056L42.0852 18.8666L38.1805 19.7343L38.3225 20.3733L42.2272 19.5056ZM42.0485 18.7258C41.7181 17.6245 40.9333 16.8662 40.0756 16.3659L38.0601 19.821C38.1997 19.9024 38.252 19.9574 38.2604 19.967C38.2639 19.9709 38.2573 19.9641 38.2471 19.946C38.2365 19.9275 38.2256 19.9032 38.2172 19.8752L42.0485 18.7258ZM40.034 16.3423C39.0062 15.7753 37.6084 15.4548 36.0538 15.2574C34.4479 15.0535 32.4628 14.9575 30.1219 14.9575V18.9575C32.3722 18.9575 34.1738 19.0508 35.5499 19.2255C36.9773 19.4068 37.7569 19.6544 38.1017 19.8446L40.034 16.3423ZM30.1219 14.9575C26.7247 14.9575 23.8644 15.4008 21.9057 16.6013L23.996 20.0117C24.972 19.4135 26.8923 18.9575 30.1219 18.9575V14.9575ZM21.9143 16.5961C19.6308 17.98 18.6079 20.2733 18.6079 22.9925H22.6079C22.6079 21.357 23.1469 20.5263 23.9875 20.0169L21.9143 16.5961ZM20.6079 20.9925H2.14786V24.9925H20.6079V20.9925ZM4.14786 22.9925C4.14786 15.9682 5.9091 11.5977 8.86918 9.21426L6.36054 6.0987C2.03129 9.58459 0.147862 15.4381 0.147862 22.9925H4.14786ZM8.85765 9.22347C12.4016 6.41279 19.2866 4.75748 30.1219 4.75748V0.757478C19.1838 0.757478 11.0642 2.36817 6.37207 6.08948L8.85765 9.22347ZM30.1219 4.75748C40.9135 4.75748 48.072 6.12194 52.0179 8.51463L54.0919 5.09433C49.139 2.09101 41.0089 0.757478 30.1219 0.757478V4.75748Z" fill="white" mask="url(#path-1-outside-1_187_660)"/>
</svg>
