<svg width="65" height="56" viewBox="0 0 65 56" fill="none" xmlns="http://www.w3.org/2000/svg">
<mask id="path-1-outside-1_187_652" maskUnits="userSpaceOnUse" x="-0.401367" y="0.16748" width="65" height="56" fill="black">
<rect fill="white" x="-0.401367" y="0.16748" width="65" height="56"/>
<path d="M59.7416 23.8445C58.653 25.6431 56.7833 27.0158 54.1326 27.9625C57.0673 28.9091 59.1263 30.3055 60.3096 32.1515C61.4456 33.8555 62.0136 36.2221 62.0136 39.2515C62.0136 44.4108 59.9073 48.1028 55.6946 50.3275C51.198 52.6941 43.3643 53.8775 32.1936 53.8775C21.1176 53.8775 13.284 52.2918 8.69263 49.1205C4.47997 46.2331 2.37363 41.5471 2.37363 35.0625H20.8336C20.8336 37.0505 21.4726 38.3048 22.7506 38.8255C24.076 39.3935 27.2236 39.6775 32.1936 39.6775C36.927 39.6775 40.0746 39.4408 41.6366 38.9675C42.678 38.5888 43.1986 37.9498 43.1986 37.0505C43.1986 36.1511 42.5596 35.5121 41.2816 35.1335C39.5776 34.6128 36.3116 34.3525 31.4836 34.3525H26.6556V21.5725H31.4836C36.217 21.5725 39.341 21.3831 40.8556 21.0045C42.039 20.6731 42.6306 20.0815 42.6306 19.2295C42.6306 18.3775 42.11 17.8095 41.0686 17.5255C39.6486 17.1468 36.5483 16.9575 31.7676 16.9575C27.3656 16.9575 24.5493 17.2415 23.3186 17.8095C22.1353 18.3301 21.5436 19.5845 21.5436 21.5725H3.08363C3.08363 15.0405 5.0243 10.3545 8.90563 7.51448C13.2603 4.34315 20.881 2.75748 31.7676 2.75748C42.8436 2.75748 50.5826 3.86981 54.9846 6.09448C59.15 8.22448 61.2326 11.8691 61.2326 17.0285C61.2326 19.9631 60.7356 22.2351 59.7416 23.8445Z"/>
</mask>
<path d="M59.7416 23.8445L58.04 22.7935L58.0353 22.8012L58.0306 22.8089L59.7416 23.8445ZM54.1326 27.9625L53.46 26.079L47.9166 28.0588L53.5186 29.8659L54.1326 27.9625ZM60.3096 32.1515L58.6259 33.2308L58.6356 33.2459L58.6455 33.2609L60.3096 32.1515ZM55.6946 50.3275L56.6261 52.0973L56.6286 52.096L55.6946 50.3275ZM8.69263 49.1205L9.8293 47.4749L9.82333 47.4708L8.69263 49.1205ZM2.37363 35.0625V33.0625H0.373633V35.0625H2.37363ZM20.8336 35.0625H22.8336V33.0625H20.8336V35.0625ZM22.7506 38.8255L23.5385 36.9872L23.5219 36.9801L23.5052 36.9733L22.7506 38.8255ZM41.6366 38.9675L42.2166 40.8815L42.2689 40.8657L42.3201 40.8471L41.6366 38.9675ZM41.2816 35.1335L40.6972 37.0462L40.7053 37.0487L40.7135 37.0511L41.2816 35.1335ZM26.6556 34.3525H24.6556V36.3525H26.6556V34.3525ZM26.6556 21.5725V19.5725H24.6556V21.5725H26.6556ZM40.8556 21.0045L41.3407 22.9448L41.3679 22.938L41.3949 22.9304L40.8556 21.0045ZM41.0686 17.5255L41.5949 15.5959L41.584 15.593L41.0686 17.5255ZM23.3186 17.8095L24.1241 19.6401L24.1405 19.6329L24.1568 19.6254L23.3186 17.8095ZM21.5436 21.5725V23.5725H23.5436V21.5725H21.5436ZM3.08363 21.5725H1.08363V23.5725H3.08363V21.5725ZM8.90563 7.51448L7.72824 5.89776L7.72461 5.90042L8.90563 7.51448ZM54.9846 6.09448L55.8952 4.31377L55.8867 4.30948L54.9846 6.09448ZM58.0306 22.8089C57.2502 24.0983 55.8244 25.2346 53.46 26.079L54.8053 29.846C57.7423 28.7971 60.0558 27.188 61.4526 24.8801L58.0306 22.8089ZM53.5186 29.8659C56.1887 30.7272 57.7774 31.9072 58.6259 33.2308L61.9934 31.0721C60.4752 28.7037 57.9459 27.0911 54.7466 26.0591L53.5186 29.8659ZM58.6455 33.2609C59.4809 34.514 60.0136 36.4385 60.0136 39.2515H64.0136C64.0136 36.0058 63.4103 33.197 61.9737 31.0421L58.6455 33.2609ZM60.0136 39.2515C60.0136 41.5576 59.5443 43.4132 58.6967 44.8989C57.8541 46.3758 56.5727 47.602 54.7607 48.5589L56.6286 52.096C59.0292 50.8283 60.9073 49.0961 62.1711 46.8811C63.4298 44.6748 64.0136 42.1047 64.0136 39.2515H60.0136ZM54.7631 48.5576C50.7359 50.6773 43.3403 51.8775 32.1936 51.8775V55.8775C43.3883 55.8775 51.6601 54.711 56.6261 52.0973L54.7631 48.5576ZM32.1936 51.8775C21.1908 51.8775 13.89 50.2797 9.82929 47.4749L7.55598 50.7661C12.6779 54.3039 21.0445 55.8775 32.1936 55.8775V51.8775ZM9.82333 47.4708C6.3009 45.0565 4.37363 41.0871 4.37363 35.0625H0.373633C0.373633 42.0072 2.65903 47.4098 7.56194 50.7702L9.82333 47.4708ZM2.37363 37.0625H20.8336V33.0625H2.37363V37.0625ZM18.8336 35.0625C18.8336 37.4416 19.6386 39.7172 21.996 40.6777L23.5052 36.9733C23.3066 36.8924 22.8336 36.6594 22.8336 35.0625H18.8336ZM21.9628 40.6638C22.9383 41.0818 24.3311 41.3125 25.9257 41.4564C27.5829 41.6059 29.6784 41.6775 32.1936 41.6775V37.6775C29.7389 37.6775 27.7755 37.607 26.2851 37.4726C24.732 37.3324 23.8883 37.1371 23.5385 36.9872L21.9628 40.6638ZM32.1936 41.6775C36.8821 41.6775 40.326 41.4545 42.2166 40.8815L41.0566 37.0534C39.8233 37.4272 36.9718 37.6775 32.1936 37.6775V41.6775ZM42.3201 40.8471C43.0672 40.5754 43.8047 40.1474 44.3586 39.4676C44.9368 38.758 45.1986 37.9156 45.1986 37.0505H41.1986C41.1986 37.0805 41.1947 37.0702 41.2066 37.035C41.2192 36.9976 41.2393 36.9635 41.2577 36.9409C41.2909 36.9 41.2474 36.9809 40.9531 37.0879L42.3201 40.8471ZM45.1986 37.0505C45.1986 36.0675 44.8261 35.175 44.1336 34.4825C43.4928 33.8417 42.6676 33.4582 41.8498 33.2159L40.7135 37.0511C40.9328 37.1161 41.0839 37.1804 41.1825 37.2328C41.2808 37.285 41.3107 37.3165 41.3052 37.3109C41.2955 37.3013 41.2607 37.2615 41.2318 37.192C41.2029 37.1223 41.1986 37.0678 41.1986 37.0505H45.1986ZM41.8661 33.2208C39.8363 32.6006 36.2819 32.3525 31.4836 32.3525V36.3525C36.3414 36.3525 39.3189 36.625 40.6972 37.0462L41.8661 33.2208ZM31.4836 32.3525H26.6556V36.3525H31.4836V32.3525ZM28.6556 34.3525V21.5725H24.6556V34.3525H28.6556ZM26.6556 23.5725H31.4836V19.5725H26.6556V23.5725ZM31.4836 23.5725C36.1723 23.5725 39.5466 23.3933 41.3407 22.9448L40.3706 19.0642C39.1353 19.373 36.2617 19.5725 31.4836 19.5725V23.5725ZM41.3949 22.9304C42.173 22.7125 42.9748 22.3528 43.6011 21.7264C44.2796 21.0479 44.6306 20.1751 44.6306 19.2295H40.6306C40.6306 19.2065 40.6357 19.1428 40.6691 19.0612C40.7028 18.9789 40.7469 18.9238 40.7727 18.898C40.7942 18.8764 40.7844 18.8938 40.7095 18.9327C40.6338 18.9721 40.5083 19.0248 40.3164 19.0786L41.3949 22.9304ZM44.6306 19.2295C44.6306 18.3604 44.3497 17.506 43.7144 16.813C43.1161 16.1603 42.34 15.7992 41.5949 15.596L40.5424 19.455C40.6833 19.4934 40.7609 19.5293 40.7943 19.5475C40.8256 19.5646 40.8054 19.5591 40.7658 19.5159C40.7229 19.4691 40.6818 19.4046 40.6553 19.3322C40.6299 19.2631 40.6306 19.2219 40.6306 19.2295H44.6306ZM41.584 15.593C39.8635 15.1342 36.4868 14.9575 31.7676 14.9575V18.9575C36.6098 18.9575 39.4338 19.1594 40.5533 19.4579L41.584 15.593ZM31.7676 14.9575C29.532 14.9575 27.6539 15.0292 26.1532 15.1806C24.7108 15.326 23.4164 15.5616 22.4805 15.9936L24.1568 19.6254C24.4515 19.4893 25.1806 19.2989 26.5545 19.1604C27.8702 19.0277 29.6013 18.9575 31.7676 18.9575V14.9575ZM22.5132 15.9788C20.2468 16.976 19.5436 19.2735 19.5436 21.5725H23.5436C23.5436 19.8955 24.0238 19.6843 24.1241 19.6401L22.5132 15.9788ZM21.5436 19.5725H3.08363V23.5725H21.5436V19.5725ZM5.08363 21.5725C5.08363 15.4311 6.89144 11.4665 10.0867 9.12854L7.72461 5.90042C3.15716 9.24246 1.08363 14.6498 1.08363 21.5725H5.08363ZM10.083 9.13119C13.8895 6.35907 20.9458 4.75748 31.7676 4.75748V0.757478C20.8162 0.757478 12.6311 2.32722 7.72824 5.89777L10.083 9.13119ZM31.7676 4.75748C42.8278 4.75748 50.1404 5.88723 54.0825 7.87948L55.8867 4.30948C51.0248 1.85239 42.8595 0.757478 31.7676 0.757478V4.75748ZM54.0741 7.87516C55.8517 8.78418 57.1073 9.9708 57.9341 11.4178C58.7674 12.8759 59.2326 14.7177 59.2326 17.0285H63.2326C63.2326 14.1799 62.6566 11.6197 61.4071 9.4332C60.1513 7.23549 58.2829 5.53478 55.8952 4.31379L54.0741 7.87516ZM59.2326 17.0285C59.2326 19.78 58.7594 21.6289 58.04 22.7935L61.4432 24.8955C62.7119 22.8414 63.2326 20.1463 63.2326 17.0285H59.2326Z" fill="white" mask="url(#path-1-outside-1_187_652)"/>
</svg>
