<svg width="307" height="77" viewBox="0 0 307 77" fill="none" xmlns="http://www.w3.org/2000/svg">
<rect x="1.28271" y="0.5" width="305" height="76" fill="#518AFA"/>
<rect x="1.28271" y="0.5" width="305" height="76" stroke="#518AFA"/>
<path d="M53.6389 35.4528H50.3186C50.2239 34.9083 50.0493 34.4259 49.7948 34.0057C49.5403 33.5795 49.2236 33.2185 48.8449 32.9226C48.4661 32.6267 48.034 32.4047 47.5487 32.2567C47.0693 32.1029 46.5514 32.0259 45.9951 32.0259C45.0067 32.0259 44.1307 32.2745 43.3672 32.7717C42.6037 33.2629 42.006 33.985 41.5739 34.9379C41.1419 35.8848 40.9258 37.0419 40.9258 38.4091C40.9258 39.8 41.1419 40.9718 41.5739 41.9247C42.0119 42.8717 42.6097 43.5878 43.3672 44.0732C44.1307 44.5526 45.0037 44.7923 45.9862 44.7923C46.5307 44.7923 47.0397 44.7212 47.5132 44.5792C47.9926 44.4312 48.4217 44.2152 48.8005 43.9311C49.1852 43.647 49.5077 43.2978 49.7682 42.8835C50.0345 42.4692 50.218 41.9957 50.3186 41.4631L53.6389 41.4808C53.5146 42.3449 53.2453 43.1558 52.831 43.9134C52.4226 44.6709 51.887 45.3397 51.2241 45.9197C50.5612 46.4938 49.7859 46.9437 48.8981 47.2692C48.0103 47.5888 47.0249 47.7486 45.9418 47.7486C44.3438 47.7486 42.9174 47.3787 41.6627 46.6388C40.408 45.899 39.4196 44.8307 38.6975 43.4339C37.9754 42.0372 37.6144 40.3622 37.6144 38.4091C37.6144 36.45 37.9784 34.7751 38.7064 33.3842C39.4343 31.9875 40.4257 30.9192 41.6804 30.1793C42.9352 29.4395 44.3556 29.0696 45.9418 29.0696C46.9539 29.0696 47.8949 29.2116 48.765 29.4957C49.635 29.7798 50.4103 30.1971 51.091 30.7475C51.7716 31.292 52.3309 31.9608 52.7689 32.7539C53.2128 33.5411 53.5028 34.4407 53.6389 35.4528ZM58.6551 47.5V29.3182H61.9488V37.0153H70.3739V29.3182H73.6764V47.5H70.3739V39.7763H61.9488V47.5H58.6551ZM79.2587 47.5V29.3182H91.0839V32.0792H82.5523V37.0153H90.4714V39.7763H82.5523V44.739H91.155V47.5H79.2587ZM112.007 35.4528H108.687C108.592 34.9083 108.417 34.4259 108.163 34.0057C107.908 33.5795 107.592 33.2185 107.213 32.9226C106.834 32.6267 106.402 32.4047 105.917 32.2567C105.437 32.1029 104.92 32.0259 104.363 32.0259C103.375 32.0259 102.499 32.2745 101.735 32.7717C100.972 33.2629 100.374 33.985 99.9421 34.9379C99.51 35.8848 99.294 37.0419 99.294 38.4091C99.294 39.8 99.51 40.9718 99.9421 41.9247C100.38 42.8717 100.978 43.5878 101.735 44.0732C102.499 44.5526 103.372 44.7923 104.354 44.7923C104.899 44.7923 105.408 44.7212 105.881 44.5792C106.361 44.4312 106.79 44.2152 107.169 43.9311C107.553 43.647 107.876 43.2978 108.136 42.8835C108.403 42.4692 108.586 41.9957 108.687 41.4631L112.007 41.4808C111.883 42.3449 111.613 43.1558 111.199 43.9134C110.791 44.6709 110.255 45.3397 109.592 45.9197C108.929 46.4938 108.154 46.9437 107.266 47.2692C106.379 47.5888 105.393 47.7486 104.31 47.7486C102.712 47.7486 101.286 47.3787 100.031 46.6388C98.7761 45.899 97.7877 44.8307 97.0657 43.4339C96.3436 42.0372 95.9826 40.3622 95.9826 38.4091C95.9826 36.45 96.3465 34.7751 97.0745 33.3842C97.8025 31.9875 98.7939 30.9192 100.049 30.1793C101.303 29.4395 102.724 29.0696 104.31 29.0696C105.322 29.0696 106.263 29.2116 107.133 29.4957C108.003 29.7798 108.778 30.1971 109.459 30.7475C110.14 31.292 110.699 31.9608 111.137 32.7539C111.581 33.5411 111.871 34.4407 112.007 35.4528ZM117.023 47.5V29.3182H120.317V37.6722H120.539L127.632 29.3182H131.654L124.623 37.4769L131.716 47.5H127.757L122.332 39.7053L120.317 42.0845V47.5H117.023ZM144.143 47.5V29.3182H150.962C152.358 29.3182 153.53 29.5608 154.477 30.0462C155.43 30.5315 156.149 31.2121 156.635 32.0881C157.126 32.9581 157.371 33.9731 157.371 35.1332C157.371 36.2991 157.123 37.3112 156.626 38.1694C156.134 39.0217 155.409 39.6816 154.451 40.1491C153.492 40.6108 152.314 40.8416 150.917 40.8416H146.061V38.1072H150.473C151.29 38.1072 151.959 37.9948 152.48 37.7699C153.001 37.5391 153.385 37.2047 153.634 36.7667C153.888 36.3228 154.016 35.7783 154.016 35.1332C154.016 34.488 153.888 33.9376 153.634 33.4819C153.379 33.0202 152.992 32.671 152.471 32.4343C151.95 32.1916 151.278 32.0703 150.456 32.0703H147.437V47.5H144.143ZM153.536 39.2614L158.037 47.5H154.362L149.941 39.2614H153.536ZM164.738 47.5H161.222L167.623 29.3182H171.689L178.099 47.5H174.584L169.727 33.0469H169.585L164.738 47.5ZM164.853 40.3711H174.442V43.0167H164.853V40.3711ZM179.396 29.3182H183.115L187.563 37.3615H187.741L192.189 29.3182H195.908L189.294 40.7173V47.5H186.01V40.7173L179.396 29.3182ZM206.402 47.5H200.241V29.3182H206.527C208.332 29.3182 209.882 29.6822 211.179 30.4102C212.481 31.1322 213.481 32.1709 214.179 33.5263C214.878 34.8816 215.227 36.5033 215.227 38.3913C215.227 40.2853 214.875 41.9129 214.17 43.2741C213.472 44.6354 212.463 45.68 211.143 46.408C209.829 47.136 208.249 47.5 206.402 47.5ZM203.535 44.6502H206.242C207.509 44.6502 208.566 44.4194 209.412 43.9577C210.258 43.4902 210.894 42.7947 211.321 41.8714C211.747 40.9422 211.96 39.7822 211.96 38.3913C211.96 37.0005 211.747 35.8464 211.321 34.929C210.894 34.0057 210.264 33.3162 209.43 32.8604C208.601 32.3988 207.571 32.168 206.34 32.168H203.535V44.6502ZM223.65 29.3182V47.5H220.356V29.3182H223.65ZM240.678 29.3182H243.972V41.1967C243.972 42.4988 243.664 43.6441 243.048 44.6325C242.439 45.6209 241.581 46.3932 240.474 46.9496C239.367 47.5 238.074 47.7752 236.594 47.7752C235.109 47.7752 233.812 47.5 232.706 46.9496C231.599 46.3932 230.741 45.6209 230.131 44.6325C229.521 43.6441 229.217 42.4988 229.217 41.1967V29.3182H232.51V40.9215C232.51 41.6791 232.676 42.3538 233.008 42.9457C233.345 43.5375 233.818 44.0021 234.428 44.3395C235.038 44.6709 235.76 44.8366 236.594 44.8366C237.429 44.8366 238.151 44.6709 238.76 44.3395C239.376 44.0021 239.849 43.5375 240.181 42.9457C240.512 42.3538 240.678 41.6791 240.678 40.9215V29.3182ZM249.552 29.3182H253.582L258.98 42.4929H259.193L264.591 29.3182H268.621V47.5H265.461V35.0089H265.292L260.267 47.4467H257.906L252.881 34.9822H252.712V47.5H249.552V29.3182Z" fill="white"/>
</svg>
