<svg width="641" height="426" viewBox="0 0 641 426" fill="none" xmlns="http://www.w3.org/2000/svg">
<path d="M245.44 290V275.1H250.3C251.873 275.1 253.24 275.42 254.4 276.06C255.573 276.687 256.48 277.56 257.12 278.68C257.76 279.787 258.08 281.073 258.08 282.54C258.08 283.993 257.76 285.287 257.12 286.42C256.48 287.54 255.573 288.42 254.4 289.06C253.24 289.687 251.873 290 250.3 290H245.44ZM248.16 287.6H250.36C251.373 287.6 252.247 287.393 252.98 286.98C253.727 286.553 254.307 285.967 254.72 285.22C255.133 284.46 255.34 283.567 255.34 282.54C255.34 281.5 255.133 280.607 254.72 279.86C254.307 279.113 253.727 278.533 252.98 278.12C252.247 277.707 251.373 277.5 250.36 277.5H248.16V287.6ZM260.245 290V275.1H265.785C266.798 275.1 267.691 275.287 268.465 275.66C269.251 276.02 269.865 276.553 270.305 277.26C270.745 277.953 270.965 278.8 270.965 279.8C270.965 280.827 270.718 281.7 270.225 282.42C269.745 283.14 269.091 283.673 268.265 284.02L271.685 290H268.605L264.945 283.46L266.705 284.5H262.965V290H260.245ZM262.965 282.1H265.825C266.318 282.1 266.745 282.007 267.105 281.82C267.465 281.62 267.745 281.347 267.945 281C268.145 280.653 268.245 280.253 268.245 279.8C268.245 279.333 268.145 278.933 267.945 278.6C267.745 278.253 267.465 277.987 267.105 277.8C266.745 277.6 266.318 277.5 265.825 277.5H262.965V282.1ZM280.807 290.24C279.714 290.24 278.694 290.047 277.747 289.66C276.801 289.273 275.974 288.733 275.267 288.04C274.561 287.347 274.007 286.533 273.607 285.6C273.221 284.653 273.027 283.633 273.027 282.54C273.027 281.433 273.221 280.413 273.607 279.48C273.994 278.547 274.541 277.733 275.247 277.04C275.954 276.347 276.781 275.813 277.727 275.44C278.674 275.053 279.701 274.86 280.807 274.86C281.914 274.86 282.941 275.053 283.887 275.44C284.834 275.827 285.661 276.367 286.367 277.06C287.074 277.74 287.621 278.547 288.007 279.48C288.407 280.413 288.607 281.433 288.607 282.54C288.607 283.633 288.407 284.653 288.007 285.6C287.607 286.533 287.054 287.347 286.347 288.04C285.641 288.733 284.814 289.273 283.867 289.66C282.934 290.047 281.914 290.24 280.807 290.24ZM280.807 287.76C281.541 287.76 282.214 287.633 282.827 287.38C283.441 287.113 283.974 286.747 284.427 286.28C284.894 285.813 285.247 285.26 285.487 284.62C285.741 283.98 285.867 283.287 285.867 282.54C285.867 281.793 285.741 281.107 285.487 280.48C285.247 279.84 284.894 279.287 284.427 278.82C283.974 278.34 283.441 277.973 282.827 277.72C282.214 277.467 281.541 277.34 280.807 277.34C280.087 277.34 279.421 277.467 278.807 277.72C278.194 277.973 277.654 278.34 277.187 278.82C276.734 279.287 276.381 279.84 276.127 280.48C275.874 281.107 275.747 281.793 275.747 282.54C275.747 283.287 275.874 283.98 276.127 284.62C276.381 285.26 276.734 285.813 277.187 286.28C277.654 286.747 278.194 287.113 278.807 287.38C279.421 287.633 280.087 287.76 280.807 287.76ZM291.026 290V275.1H296.586C297.599 275.1 298.493 275.287 299.266 275.66C300.053 276.02 300.666 276.553 301.106 277.26C301.546 277.953 301.766 278.8 301.766 279.8C301.766 280.787 301.539 281.633 301.086 282.34C300.646 283.033 300.039 283.567 299.266 283.94C298.493 284.313 297.599 284.5 296.586 284.5H293.746V290H291.026ZM293.746 282.1H296.626C297.119 282.1 297.546 282.007 297.906 281.82C298.266 281.62 298.546 281.347 298.746 281C298.946 280.653 299.046 280.253 299.046 279.8C299.046 279.333 298.946 278.933 298.746 278.6C298.546 278.253 298.266 277.987 297.906 277.8C297.546 277.6 297.119 277.5 296.626 277.5H293.746V282.1ZM306.329 290L311.469 275.1H314.989L320.129 290H317.169L316.109 286.8H310.349L309.269 290H306.329ZM311.129 284.4H315.329L312.849 276.98H313.609L311.129 284.4ZM325.342 290V275.1H330.902C331.916 275.1 332.809 275.287 333.582 275.66C334.369 276.02 334.982 276.553 335.422 277.26C335.862 277.953 336.082 278.8 336.082 279.8C336.082 280.787 335.856 281.633 335.402 282.34C334.962 283.033 334.356 283.567 333.582 283.94C332.809 284.313 331.916 284.5 330.902 284.5H328.062V290H325.342ZM328.062 282.1H330.942C331.436 282.1 331.862 282.007 332.222 281.82C332.582 281.62 332.862 281.347 333.062 281C333.262 280.653 333.362 280.253 333.362 279.8C333.362 279.333 333.262 278.933 333.062 278.6C332.862 278.253 332.582 277.987 332.222 277.8C331.862 277.6 331.436 277.5 330.942 277.5H328.062V282.1ZM338.311 290V275.1H341.031V281.6H347.371V275.1H350.111V290H347.371V284H341.031V290H338.311ZM360.319 290.24C359.226 290.24 358.206 290.047 357.259 289.66C356.312 289.273 355.486 288.733 354.779 288.04C354.072 287.347 353.519 286.533 353.119 285.6C352.732 284.653 352.539 283.633 352.539 282.54C352.539 281.433 352.732 280.413 353.119 279.48C353.506 278.547 354.052 277.733 354.759 277.04C355.466 276.347 356.292 275.813 357.239 275.44C358.186 275.053 359.212 274.86 360.319 274.86C361.426 274.86 362.452 275.053 363.399 275.44C364.346 275.827 365.172 276.367 365.879 277.06C366.586 277.74 367.132 278.547 367.519 279.48C367.919 280.413 368.119 281.433 368.119 282.54C368.119 283.633 367.919 284.653 367.519 285.6C367.119 286.533 366.566 287.347 365.859 288.04C365.152 288.733 364.326 289.273 363.379 289.66C362.446 290.047 361.426 290.24 360.319 290.24ZM360.319 287.76C361.052 287.76 361.726 287.633 362.339 287.38C362.952 287.113 363.486 286.747 363.939 286.28C364.406 285.813 364.759 285.26 364.999 284.62C365.252 283.98 365.379 283.287 365.379 282.54C365.379 281.793 365.252 281.107 364.999 280.48C364.759 279.84 364.406 279.287 363.939 278.82C363.486 278.34 362.952 277.973 362.339 277.72C361.726 277.467 361.052 277.34 360.319 277.34C359.599 277.34 358.932 277.467 358.319 277.72C357.706 277.973 357.166 278.34 356.699 278.82C356.246 279.287 355.892 279.84 355.639 280.48C355.386 281.107 355.259 281.793 355.259 282.54C355.259 283.287 355.386 283.98 355.639 284.62C355.892 285.26 356.246 285.813 356.699 286.28C357.166 286.747 357.706 287.113 358.319 287.38C358.932 287.633 359.599 287.76 360.319 287.76ZM372.572 290V277.5H368.712V275.1H379.112V277.5H375.312V290H372.572ZM387.507 290.24C386.413 290.24 385.393 290.047 384.447 289.66C383.5 289.273 382.673 288.733 381.967 288.04C381.26 287.347 380.707 286.533 380.307 285.6C379.92 284.653 379.727 283.633 379.727 282.54C379.727 281.433 379.92 280.413 380.307 279.48C380.693 278.547 381.24 277.733 381.947 277.04C382.653 276.347 383.48 275.813 384.427 275.44C385.373 275.053 386.4 274.86 387.507 274.86C388.613 274.86 389.64 275.053 390.587 275.44C391.533 275.827 392.36 276.367 393.067 277.06C393.773 277.74 394.32 278.547 394.707 279.48C395.107 280.413 395.307 281.433 395.307 282.54C395.307 283.633 395.107 284.653 394.707 285.6C394.307 286.533 393.753 287.347 393.047 288.04C392.34 288.733 391.513 289.273 390.567 289.66C389.633 290.047 388.613 290.24 387.507 290.24ZM387.507 287.76C388.24 287.76 388.913 287.633 389.527 287.38C390.14 287.113 390.673 286.747 391.127 286.28C391.593 285.813 391.947 285.26 392.187 284.62C392.44 283.98 392.567 283.287 392.567 282.54C392.567 281.793 392.44 281.107 392.187 280.48C391.947 279.84 391.593 279.287 391.127 278.82C390.673 278.34 390.14 277.973 389.527 277.72C388.913 277.467 388.24 277.34 387.507 277.34C386.787 277.34 386.12 277.467 385.507 277.72C384.893 277.973 384.353 278.34 383.887 278.82C383.433 279.287 383.08 279.84 382.827 280.48C382.573 281.107 382.447 281.793 382.447 282.54C382.447 283.287 382.573 283.98 382.827 284.62C383.08 285.26 383.433 285.813 383.887 286.28C384.353 286.747 384.893 287.113 385.507 287.38C386.12 287.633 386.787 287.76 387.507 287.76Z" fill="white"/>
<rect x="1" y="1" width="639" height="424" rx="19" stroke="white" stroke-width="2"/>
<path d="M261 199.75L292.748 167.764C294.033 166.469 295.56 165.441 297.24 164.74C298.92 164.039 300.72 163.678 302.538 163.678C304.357 163.678 306.157 164.039 307.837 164.74C309.517 165.441 311.043 166.469 312.329 167.764L344.077 199.75M334.846 190.45L343.517 181.714C344.803 180.419 346.329 179.391 348.009 178.69C349.689 177.989 351.489 177.628 353.308 177.628C355.126 177.628 356.927 177.989 358.606 178.69C360.286 179.391 361.813 180.419 363.098 181.714L381 199.75M371.769 223H283C270.85 223 261 213.15 261 201V152C261 139.85 270.85 130 283 130H359C371.15 130 381 139.85 381 152V213.7V213.7C381 218.798 376.867 223 371.769 223V223ZM337.154 153.25C337.154 153.867 336.911 154.458 336.478 154.894C336.045 155.33 335.458 155.575 334.846 155.575C334.234 155.575 333.647 155.33 333.214 154.894C332.782 154.458 332.538 153.867 332.538 153.25C332.538 152.633 332.782 152.042 333.214 151.606C333.647 151.17 334.234 150.925 334.846 150.925C335.458 150.925 336.045 151.17 336.478 151.606C336.911 152.042 337.154 152.633 337.154 153.25ZM334.871 153.3V153.3C334.884 153.3 334.895 153.288 334.895 153.275V153.275C334.895 153.261 334.884 153.25 334.871 153.25V153.25C334.857 153.25 334.846 153.261 334.846 153.275V153.275C334.846 153.288 334.857 153.3 334.871 153.3Z" stroke="white" stroke-width="3" stroke-linecap="round" stroke-linejoin="round"/>
</svg>
