<svg width="106" height="77" viewBox="0 0 106 77" fill="none" xmlns="http://www.w3.org/2000/svg">
<path d="M0.5 20C0.5 9.23045 9.23045 0.5 20 0.5H105.5V76.5H20C9.23044 76.5 0.5 67.7695 0.5 57V20Z" fill="black" stroke="white"/>
<path d="M35 44.75L44.7889 34.7759C45.1853 34.372 45.6559 34.0516 46.1739 33.833C46.6919 33.6143 47.247 33.5018 47.8077 33.5018C48.3683 33.5018 48.9235 33.6143 49.4415 33.833C49.9594 34.0516 50.4301 34.372 50.8265 34.7759L60.6154 44.75M57.7692 41.85L60.4427 39.1259C60.8392 38.722 61.3098 38.4016 61.8278 38.183C62.3457 37.9643 62.9009 37.8518 63.4615 37.8518C64.0222 37.8518 64.5773 37.9643 65.0953 38.183C65.6133 38.4016 66.0839 38.722 66.4804 39.1259L72 44.75M35 52H69.1538H72V49.1V23H35V52ZM57.7692 30.25H57.7844V30.2655H57.7692V30.25ZM58.4808 30.25C58.4808 30.4423 58.4058 30.6267 58.2724 30.7627C58.1389 30.8986 57.9579 30.975 57.7692 30.975C57.5805 30.975 57.3995 30.8986 57.2661 30.7627C57.1327 30.6267 57.0577 30.4423 57.0577 30.25C57.0577 30.0577 57.1327 29.8733 57.2661 29.7373C57.3995 29.6014 57.5805 29.525 57.7692 29.525C57.9579 29.525 58.1389 29.6014 58.2724 29.7373C58.4058 29.8733 58.4808 30.0577 58.4808 30.25Z" stroke="white" stroke-width="1.32258" stroke-linecap="round" stroke-linejoin="round"/>
</svg>
