<svg width="263" height="248" viewBox="0 0 263 248" fill="none" xmlns="http://www.w3.org/2000/svg">
<path d="M56.44 189V174.1H61.3C62.8733 174.1 64.24 174.42 65.4 175.06C66.5733 175.687 67.48 176.56 68.12 177.68C68.76 178.787 69.08 180.073 69.08 181.54C69.08 182.993 68.76 184.287 68.12 185.42C67.48 186.54 66.5733 187.42 65.4 188.06C64.24 188.687 62.8733 189 61.3 189H56.44ZM59.16 186.6H61.36C62.3733 186.6 63.2467 186.393 63.98 185.98C64.7267 185.553 65.3067 184.967 65.72 184.22C66.1333 183.46 66.34 182.567 66.34 181.54C66.34 180.5 66.1333 179.607 65.72 178.86C65.3067 178.113 64.7267 177.533 63.98 177.12C63.2467 176.707 62.3733 176.5 61.36 176.5H59.16V186.6ZM71.2447 189V174.1H76.7847C77.798 174.1 78.6914 174.287 79.4647 174.66C80.2514 175.02 80.8647 175.553 81.3047 176.26C81.7447 176.953 81.9647 177.8 81.9647 178.8C81.9647 179.827 81.718 180.7 81.2247 181.42C80.7447 182.14 80.0914 182.673 79.2647 183.02L82.6847 189H79.6047L75.9447 182.46L77.7047 183.5H73.9647V189H71.2447ZM73.9647 181.1H76.8247C77.318 181.1 77.7447 181.007 78.1047 180.82C78.4647 180.62 78.7447 180.347 78.9447 180C79.1447 179.653 79.2447 179.253 79.2447 178.8C79.2447 178.333 79.1447 177.933 78.9447 177.6C78.7447 177.253 78.4647 176.987 78.1047 176.8C77.7447 176.6 77.318 176.5 76.8247 176.5H73.9647V181.1ZM91.8073 189.24C90.714 189.24 89.694 189.047 88.7473 188.66C87.8007 188.273 86.974 187.733 86.2673 187.04C85.5607 186.347 85.0073 185.533 84.6073 184.6C84.2207 183.653 84.0273 182.633 84.0273 181.54C84.0273 180.433 84.2207 179.413 84.6073 178.48C84.994 177.547 85.5407 176.733 86.2473 176.04C86.954 175.347 87.7807 174.813 88.7273 174.44C89.674 174.053 90.7007 173.86 91.8073 173.86C92.914 173.86 93.9407 174.053 94.8873 174.44C95.834 174.827 96.6607 175.367 97.3673 176.06C98.074 176.74 98.6207 177.547 99.0073 178.48C99.4073 179.413 99.6073 180.433 99.6073 181.54C99.6073 182.633 99.4073 183.653 99.0073 184.6C98.6073 185.533 98.054 186.347 97.3473 187.04C96.6407 187.733 95.814 188.273 94.8673 188.66C93.934 189.047 92.914 189.24 91.8073 189.24ZM91.8073 186.76C92.5407 186.76 93.214 186.633 93.8273 186.38C94.4407 186.113 94.974 185.747 95.4273 185.28C95.894 184.813 96.2473 184.26 96.4873 183.62C96.7407 182.98 96.8673 182.287 96.8673 181.54C96.8673 180.793 96.7407 180.107 96.4873 179.48C96.2473 178.84 95.894 178.287 95.4273 177.82C94.974 177.34 94.4407 176.973 93.8273 176.72C93.214 176.467 92.5407 176.34 91.8073 176.34C91.0873 176.34 90.4207 176.467 89.8073 176.72C89.194 176.973 88.654 177.34 88.1873 177.82C87.734 178.287 87.3807 178.84 87.1273 179.48C86.874 180.107 86.7473 180.793 86.7473 181.54C86.7473 182.287 86.874 182.98 87.1273 183.62C87.3807 184.26 87.734 184.813 88.1873 185.28C88.654 185.747 89.194 186.113 89.8073 186.38C90.4207 186.633 91.0873 186.76 91.8073 186.76ZM102.026 189V174.1H107.586C108.599 174.1 109.493 174.287 110.266 174.66C111.053 175.02 111.666 175.553 112.106 176.26C112.546 176.953 112.766 177.8 112.766 178.8C112.766 179.787 112.539 180.633 112.086 181.34C111.646 182.033 111.039 182.567 110.266 182.94C109.493 183.313 108.599 183.5 107.586 183.5H104.746V189H102.026ZM104.746 181.1H107.626C108.119 181.1 108.546 181.007 108.906 180.82C109.266 180.62 109.546 180.347 109.746 180C109.946 179.653 110.046 179.253 110.046 178.8C110.046 178.333 109.946 177.933 109.746 177.6C109.546 177.253 109.266 176.987 108.906 176.8C108.546 176.6 108.119 176.5 107.626 176.5H104.746V181.1ZM117.329 189L122.469 174.1H125.989L131.129 189H128.169L127.109 185.8H121.349L120.269 189H117.329ZM122.129 183.4H126.329L123.849 175.98H124.609L122.129 183.4ZM136.342 189V174.1H141.902C142.916 174.1 143.809 174.287 144.582 174.66C145.369 175.02 145.982 175.553 146.422 176.26C146.862 176.953 147.082 177.8 147.082 178.8C147.082 179.787 146.856 180.633 146.402 181.34C145.962 182.033 145.356 182.567 144.582 182.94C143.809 183.313 142.916 183.5 141.902 183.5H139.062V189H136.342ZM139.062 181.1H141.942C142.436 181.1 142.862 181.007 143.222 180.82C143.582 180.62 143.862 180.347 144.062 180C144.262 179.653 144.362 179.253 144.362 178.8C144.362 178.333 144.262 177.933 144.062 177.6C143.862 177.253 143.582 176.987 143.222 176.8C142.862 176.6 142.436 176.5 141.942 176.5H139.062V181.1ZM149.311 189V174.1H152.031V180.6H158.371V174.1H161.111V189H158.371V183H152.031V189H149.311ZM171.319 189.24C170.226 189.24 169.206 189.047 168.259 188.66C167.312 188.273 166.486 187.733 165.779 187.04C165.072 186.347 164.519 185.533 164.119 184.6C163.732 183.653 163.539 182.633 163.539 181.54C163.539 180.433 163.732 179.413 164.119 178.48C164.506 177.547 165.052 176.733 165.759 176.04C166.466 175.347 167.292 174.813 168.239 174.44C169.186 174.053 170.212 173.86 171.319 173.86C172.426 173.86 173.452 174.053 174.399 174.44C175.346 174.827 176.172 175.367 176.879 176.06C177.586 176.74 178.132 177.547 178.519 178.48C178.919 179.413 179.119 180.433 179.119 181.54C179.119 182.633 178.919 183.653 178.519 184.6C178.119 185.533 177.566 186.347 176.859 187.04C176.152 187.733 175.326 188.273 174.379 188.66C173.446 189.047 172.426 189.24 171.319 189.24ZM171.319 186.76C172.052 186.76 172.726 186.633 173.339 186.38C173.952 186.113 174.486 185.747 174.939 185.28C175.406 184.813 175.759 184.26 175.999 183.62C176.252 182.98 176.379 182.287 176.379 181.54C176.379 180.793 176.252 180.107 175.999 179.48C175.759 178.84 175.406 178.287 174.939 177.82C174.486 177.34 173.952 176.973 173.339 176.72C172.726 176.467 172.052 176.34 171.319 176.34C170.599 176.34 169.932 176.467 169.319 176.72C168.706 176.973 168.166 177.34 167.699 177.82C167.246 178.287 166.892 178.84 166.639 179.48C166.386 180.107 166.259 180.793 166.259 181.54C166.259 182.287 166.386 182.98 166.639 183.62C166.892 184.26 167.246 184.813 167.699 185.28C168.166 185.747 168.706 186.113 169.319 186.38C169.932 186.633 170.599 186.76 171.319 186.76ZM183.572 189V176.5H179.712V174.1H190.112V176.5H186.312V189H183.572ZM198.507 189.24C197.413 189.24 196.393 189.047 195.447 188.66C194.5 188.273 193.673 187.733 192.967 187.04C192.26 186.347 191.707 185.533 191.307 184.6C190.92 183.653 190.727 182.633 190.727 181.54C190.727 180.433 190.92 179.413 191.307 178.48C191.693 177.547 192.24 176.733 192.947 176.04C193.653 175.347 194.48 174.813 195.427 174.44C196.373 174.053 197.4 173.86 198.507 173.86C199.613 173.86 200.64 174.053 201.587 174.44C202.533 174.827 203.36 175.367 204.067 176.06C204.773 176.74 205.32 177.547 205.707 178.48C206.107 179.413 206.307 180.433 206.307 181.54C206.307 182.633 206.107 183.653 205.707 184.6C205.307 185.533 204.753 186.347 204.047 187.04C203.34 187.733 202.513 188.273 201.567 188.66C200.633 189.047 199.613 189.24 198.507 189.24ZM198.507 186.76C199.24 186.76 199.913 186.633 200.527 186.38C201.14 186.113 201.673 185.747 202.127 185.28C202.593 184.813 202.947 184.26 203.187 183.62C203.44 182.98 203.567 182.287 203.567 181.54C203.567 180.793 203.44 180.107 203.187 179.48C202.947 178.84 202.593 178.287 202.127 177.82C201.673 177.34 201.14 176.973 200.527 176.72C199.913 176.467 199.24 176.34 198.507 176.34C197.787 176.34 197.12 176.467 196.507 176.72C195.893 176.973 195.353 177.34 194.887 177.82C194.433 178.287 194.08 178.84 193.827 179.48C193.573 180.107 193.447 180.793 193.447 181.54C193.447 182.287 193.573 182.98 193.827 183.62C194.08 184.26 194.433 184.813 194.887 185.28C195.353 185.747 195.893 186.113 196.507 186.38C197.12 186.633 197.787 186.76 198.507 186.76Z" fill="white"/>
<rect x="1" y="1" width="261" height="246" rx="26" stroke="white" stroke-width="2"/>
<path d="M72 118.75L103.748 86.7642C105.033 85.4688 106.56 84.4412 108.24 83.7402C109.92 83.0391 111.72 82.6783 113.538 82.6783C115.357 82.6783 117.157 83.0391 118.837 83.7402C120.517 84.4412 122.043 85.4688 123.329 86.7642L155.077 118.75M145.846 109.45L154.517 100.714C155.803 99.4188 157.329 98.3912 159.009 97.6902C160.689 96.9891 162.489 96.6283 164.308 96.6283C166.126 96.6283 167.927 96.9891 169.606 97.6902C171.286 98.3912 172.813 99.4188 174.098 100.714L192 118.75M182.769 142H97C83.1929 142 72 130.807 72 117V74C72 60.1929 83.1929 49 97 49H167C180.807 49 192 60.1929 192 74V132.7V132.7C192 137.798 187.867 142 182.769 142V142ZM145.846 72.25H145.895V72.2996H145.846V72.25ZM148.154 72.25C148.154 72.8666 147.911 73.458 147.478 73.894C147.045 74.33 146.458 74.575 145.846 74.575C145.234 74.575 144.647 74.33 144.214 73.894C143.782 73.458 143.538 72.8666 143.538 72.25C143.538 71.6334 143.782 71.042 144.214 70.606C144.647 70.17 145.234 69.925 145.846 69.925C146.458 69.925 147.045 70.17 147.478 70.606C147.911 71.042 148.154 71.6334 148.154 72.25Z" stroke="white" stroke-width="3" stroke-linecap="round" stroke-linejoin="round"/>
</svg>
