<svg width="161" height="36" viewBox="0 0 161 36" fill="none" xmlns="http://www.w3.org/2000/svg">
<path d="M48.2 21.6H51.26C53.4867 21.6 54.6 20.7333 54.6 19C54.6 17.2667 53.4867 16.4 51.26 16.4H48.2V21.6ZM43 12H51.26C54.1 12 56.2467 12.62 57.7 13.86C59.1 15.0467 59.8 16.76 59.8 19C59.8 21.24 59.1 22.9533 57.7 24.14C56.2467 25.38 54.1 26 51.26 26H43V12ZM61.3008 12H76.1008V16H66.5008V17.2H75.9008V20.8H66.5008V22H76.1008V26H61.3008V12ZM77.6094 12H92.4094V16H82.8094V17.2H92.2094V20.8H82.8094V22H92.4094V26H77.6094V12ZM99.118 16.4V18.4H102.558C103.465 18.4 103.918 18.0667 103.918 17.4C103.918 16.7333 103.465 16.4 102.558 16.4H99.118ZM99.118 22.8V26H93.918V12H102.378C104.578 12 106.258 12.48 107.418 13.44C108.551 14.36 109.118 15.68 109.118 17.4C109.118 19.12 108.551 20.44 107.418 21.36C106.258 22.32 104.578 22.8 102.378 22.8H99.118ZM113.527 12H121.127L127.127 26H121.727L120.707 23.6H113.947L112.927 26H107.527L113.527 12ZM117.327 15.74L115.507 20H119.147L117.327 15.74ZM133.337 16.4V18.4H137.577C138.483 18.4 138.937 18.0667 138.937 17.4C138.937 16.7333 138.483 16.4 137.577 16.4H133.337ZM133.337 22.8V26H128.137V12H137.397C139.597 12 141.277 12.48 142.437 13.44C143.57 14.36 144.137 15.68 144.137 17.4C144.137 19.5733 143.243 21.1067 141.457 22L144.137 26H138.737L136.597 22.8H133.337ZM144.544 12H160.144V16.4H154.944V26H149.744V16.4H144.544V12Z" fill="white"/>
<path d="M35.3745 2.68236C34.9566 2.60105 34.8889 2.98861 34.7207 3.22228C34.6617 3.29888 34.619 3.38982 34.5744 3.47348C34.1879 4.19588 33.6577 4.7432 32.8207 4.91917C31.5966 5.17546 30.6678 5.82961 30.004 6.9957C29.5058 5.91027 28.6811 5.40487 27.5864 5.23056C27.0135 5.14091 26.4351 5.05428 25.9436 4.65756C25.5994 4.37412 25.4262 4.00123 25.1982 3.65082C25.0559 3.43957 24.9123 3.22395 24.6355 3.25603C24.3325 3.28892 24.284 3.5622 24.2251 3.79622C23.9926 4.75012 24.0621 5.71352 24.3281 6.6367C24.927 8.71459 26.2545 10.1421 28.3246 10.8547C28.5602 10.9365 28.6477 11.0596 28.6381 11.2741C28.628 11.7133 28.5914 12.1471 28.5757 12.5893C28.5655 12.8711 28.461 12.9583 28.1516 12.9212C27.0991 12.7686 26.0855 12.4158 25.1659 11.8818C23.5964 11.0118 22.114 9.98427 20.4295 9.31957C20.0394 9.16631 19.6438 9.02743 19.2435 8.9032C17.4374 7.89542 18.7534 6.31762 19.0926 6.08179C19.4472 5.834 19.0595 5.41726 17.7923 5.76304C16.5252 6.10881 15.4775 6.84313 14.1494 7.80535C13.9521 7.94849 13.7437 8.07573 13.5262 8.18588C12.0737 8.29597 10.646 8.62489 9.29175 9.1615C6.63096 10.2018 4.78882 12.0858 3.77088 14.7294C2.5481 17.9064 2.90246 21.0505 4.30378 24.0513C5.78018 27.2159 8.21357 29.5114 11.3954 30.9627C14.6961 32.4678 18.101 32.7261 21.5965 31.565C23.7196 30.8636 26.0442 29.9306 28.1378 26.913C28.9128 27.0701 29.6649 27.0135 30.8824 26.7964C31.822 26.6366 32.669 26.2709 33.3132 25.9456C34.3218 25.4322 33.9822 24.4616 33.5483 24.3846C30.0216 23.7646 30.8692 24.175 30.1131 23.8617C31.2028 21.5496 33.079 18.9488 32.3194 12.3546C32.257 11.8305 32.1095 11.5302 31.9902 11.1257C31.9181 10.88 31.9487 10.7674 32.225 10.6637C32.9904 10.3712 33.6911 9.9319 34.2879 9.3706C36.0217 7.7167 36.3544 5.676 35.9626 3.43975C35.9021 3.09746 35.7752 2.7636 35.3745 2.68236ZM22.9396 27.0854C19.2603 25.5118 17.5756 25.1199 16.9763 25.3163C16.4153 25.5041 16.6928 26.1265 16.9318 26.5176C17.1749 26.9014 17.4223 27.1437 17.7595 27.4477C17.9905 27.6461 18.201 27.9779 17.8301 28.3687C17.013 29.2361 15.0955 28.8832 15.0049 28.8654C12.7122 28.2296 10.6427 27.135 8.91336 25.3429C7.24438 23.6188 6.00745 21.6214 5.27823 19.3306C5.09871 18.7771 5.21013 18.5352 5.74156 18.2837C6.43744 17.9469 7.18382 17.7263 7.95102 17.6309C11.1746 17.2535 14.1853 17.9322 16.9878 19.5334C18.5859 20.4458 19.942 21.6832 21.3183 22.8794C22.7812 24.149 24.3033 25.3249 26.0621 26.1505C26.6823 26.4395 27.1718 26.6544 27.6223 26.7877C26.4905 27.2313 24.5516 27.782 22.9396 27.0854ZM21.885 17.3297C21.8654 17.2575 21.8636 17.1816 21.8799 17.1086C21.8962 17.0356 21.93 16.9676 21.9785 16.9106C22.0269 16.8536 22.0885 16.8092 22.1579 16.7813C22.2273 16.7534 22.3025 16.7428 22.377 16.7505C22.4713 16.7583 22.5609 16.7953 22.6331 16.8564C22.7054 16.9175 22.7568 16.9996 22.7802 17.0913C22.7962 17.1503 22.8003 17.2119 22.7923 17.2726C22.7842 17.3332 22.7642 17.3916 22.7334 17.4444C22.7025 17.4972 22.6615 17.5433 22.6126 17.5801C22.5637 17.6169 22.5081 17.6436 22.4488 17.6587C22.3902 17.6746 22.329 17.6787 22.2689 17.6707C22.2087 17.6626 22.1507 17.6427 22.0984 17.612C22.046 17.5814 22.0003 17.5406 21.9639 17.492C21.9275 17.4434 21.8997 17.3885 21.885 17.3297ZM27.0319 18.4383C26.7725 18.6341 26.5102 18.8135 26.2358 18.901C25.8216 19.0276 25.3764 19.007 24.9758 18.8427C24.4875 18.615 24.1524 18.5053 23.8772 17.9555C23.7599 17.6823 23.6903 17.3909 23.6714 17.0942C23.6458 16.5913 23.4505 16.3163 23.0403 16.13C22.7075 15.9761 22.343 16.0067 21.9618 16.1088C21.8292 16.1362 21.692 16.1313 21.5618 16.0944C21.3807 16.0588 21.1968 15.8961 21.2564 15.6182C21.2761 15.5288 21.4167 15.2853 21.4539 15.238C21.8932 14.8054 22.5169 14.7412 23.1276 14.8145C23.6958 14.8866 24.1857 15.1669 24.8887 15.5615C25.6334 16.065 25.7854 16.2191 26.2416 16.6237C26.6009 16.9405 26.9397 17.2737 27.2195 17.6835C27.393 17.9409 27.3298 18.2057 27.0319 18.4383Z" fill="white"/>
</svg>
