<svg width="228" height="53" viewBox="0 0 228 53" fill="none" xmlns="http://www.w3.org/2000/svg">
<rect x="1" y="0.5" width="226" height="52" rx="14.5" fill="#518AFA"/>
<rect x="1" y="0.5" width="226" height="52" rx="14.5" stroke="white"/>
<path d="M30.63 26.7C30.63 28.38 31.77 29.22 34.05 29.22C36.33 29.22 37.47 28.38 37.47 26.7C37.47 25.02 36.33 24.18 34.05 24.18C31.77 24.18 30.63 25.02 30.63 26.7ZM27.984 21.93C29.376 20.79 31.398 20.22 34.05 20.22C36.702 20.22 38.724 20.79 40.116 21.93C41.472 23.046 42.15 24.636 42.15 26.7C42.15 28.764 41.472 30.354 40.116 31.47C38.724 32.61 36.702 33.18 34.05 33.18C31.398 33.18 29.376 32.61 27.984 31.47C26.628 30.354 25.95 28.764 25.95 26.7C25.95 24.636 26.628 23.046 27.984 21.93ZM48.1835 24.36V26.16H51.2795C52.0955 26.16 52.5035 25.86 52.5035 25.26C52.5035 24.66 52.0955 24.36 51.2795 24.36H48.1835ZM48.1835 30.12V33H43.5035V20.4H51.1175C53.0975 20.4 54.6095 20.832 55.6535 21.696C56.6735 22.524 57.1835 23.712 57.1835 25.26C57.1835 26.808 56.6735 27.996 55.6535 28.824C54.6095 29.688 53.0975 30.12 51.1175 30.12H48.1835ZM58.4449 20.4H71.7649V24H63.1249V25.08H71.5849V28.32H63.1249V29.4H71.7649V33H58.4449V20.4ZM83.9227 20.4H88.6027V33H83.2027L77.8027 26.25V33H73.1227V20.4H78.5227L83.9227 27.15V20.4ZM101.568 29.04H104.322C106.326 29.04 107.328 28.26 107.328 26.7C107.328 25.14 106.326 24.36 104.322 24.36H101.568V29.04ZM96.8883 20.4H104.322C106.878 20.4 108.81 20.958 110.118 22.074C111.378 23.142 112.008 24.684 112.008 26.7C112.008 28.716 111.378 30.258 110.118 31.326C108.81 32.442 106.878 33 104.322 33H96.8883V20.4ZM113.359 20.4H126.679V24H118.039V25.08H126.499V28.32H118.039V29.4H126.679V33H113.359V20.4ZM128.037 20.4H141.357V24H132.717V25.08H141.177V28.32H132.717V29.4H141.357V33H128.037V20.4ZM147.394 24.36V26.16H150.49C151.306 26.16 151.714 25.86 151.714 25.26C151.714 24.66 151.306 24.36 150.49 24.36H147.394ZM147.394 30.12V33H142.714V20.4H150.328C152.308 20.4 153.82 20.832 154.864 21.696C155.884 22.524 156.394 23.712 156.394 25.26C156.394 26.808 155.884 27.996 154.864 28.824C153.82 29.688 152.308 30.12 150.328 30.12H147.394ZM160.363 20.4H167.203L172.603 33H167.743L166.825 30.84H160.741L159.823 33H154.963L160.363 20.4ZM163.783 23.766L162.145 27.6H165.421L163.783 23.766ZM178.191 24.36V26.16H182.007C182.823 26.16 183.231 25.86 183.231 25.26C183.231 24.66 182.823 24.36 182.007 24.36H178.191ZM178.191 30.12V33H173.511V20.4H181.845C183.825 20.4 185.337 20.832 186.381 21.696C187.401 22.524 187.911 23.712 187.911 25.26C187.911 27.216 187.107 28.596 185.499 29.4L187.911 33H183.051L181.125 30.12H178.191ZM188.278 20.4H202.318V24.36H197.638V33H192.958V24.36H188.278V20.4Z" fill="white"/>
</svg>
