<svg width="28" height="29" viewBox="0 0 28 29" fill="none" xmlns="http://www.w3.org/2000/svg">
<circle cx="14" cy="14.1201" r="14" fill="white"/>
<path d="M9.58156 7.09694C11.1644 5.51548 13.1618 5.12012 13.9627 5.12012V10.3229C13.3395 10.3229 13.0435 10.6198 12.9734 10.7682C10.0338 9.5256 8.54516 7.144 8.16829 6.10853C8.50747 6.56037 9.25179 6.95574 9.58156 7.09694Z" fill="black"/>
<path d="M18.2394 7.09694C16.6565 5.51548 14.6591 5.12012 13.8583 5.12012V10.3229C14.4815 10.3229 14.7775 10.6198 14.8476 10.7682C17.7872 9.5256 19.2758 7.144 19.6527 6.10853C19.3135 6.56037 18.5692 6.95574 18.2394 7.09694Z" fill="black"/>
<path d="M10.5003 10.3669C10.9461 10.7027 11.9495 11.4138 12.3966 11.5715C11.5453 11.838 9.97413 11.9701 10.5003 10.3669Z" fill="black"/>
<path d="M9.70028 9.66604C9.41969 9.45578 8.93304 8.78268 8.72479 8.4724C7.91529 9.28118 7.82733 10.8754 7.88454 11.5715C7.88454 16.8258 6.90162 19.2804 6.41016 19.8509L8.49226 18.2615L9.902 20.5874L11.5415 19.1632L13.9171 23.1201V21.8162L13.135 19.1632C12.4948 16.3429 10.5199 15.0879 9.61248 14.8129L11.5415 13.7178L11.6073 12.8089C9.00307 12.8089 9.25086 10.7137 9.70028 9.66604Z" fill="black"/>
<path d="M17.32 10.3669C16.8742 10.7027 15.8708 11.4138 15.4237 11.5715C16.275 11.838 17.8462 11.9701 17.32 10.3669Z" fill="black"/>
<path d="M18.12 9.66604C18.4006 9.45578 18.8873 8.78268 19.0955 8.4724C19.905 9.28118 19.993 10.8754 19.9358 11.5715C19.9358 16.8258 20.9187 19.2804 21.4102 19.8509L19.328 18.2615L17.9183 20.5874L16.2788 19.1632L13.9032 23.1201V21.8162L14.6853 19.1632C15.3255 16.3429 17.3004 15.0879 18.2078 14.8129L16.2788 13.7178L16.213 12.8089C18.8172 12.8089 18.5695 10.7137 18.12 9.66604Z" fill="black"/>
<path d="M12.6417 13.0814C12.6417 12.0428 13.5281 11.5315 13.9713 11.4057V18.6523C13.9713 16.7561 12.42 15.3158 11.6444 14.8327L12.6417 14.2137V13.0814Z" fill="black"/>
<path d="M15.2983 13.0814C15.2983 12.0428 14.4119 11.5315 13.9686 11.4057V18.6523C13.9686 16.7561 15.5199 15.3158 16.2956 14.8327L15.2983 14.2137V13.0814Z" fill="black"/>
</svg>
